<svg xmlns="http://www.w3.org/2000/svg" viewBox="0 0 32 32">
  <defs>
    <radialGradient id="bodyGradFav" cx="38%" cy="32%" r="65%" fx="36%" fy="30%">
      <stop offset="0%" stop-color="#F5F2E8"/>
      <stop offset="55%" stop-color="#EDE7D4"/>
      <stop offset="100%" stop-color="#D6CEBC"/>
    </radialGradient>
    <radialGradient id="shadowGradFav" cx="50%" cy="50%" r="50%">
      <stop offset="0%" stop-color="#A89880" stop-opacity="0.45"/>
      <stop offset="100%" stop-color="#A89880" stop-opacity="0"/>
    </radialGradient>
  </defs>

  <!-- Ground shadow -->
  <ellipse cx="16" cy="30.5" rx="9" ry="2" fill="url(#shadowGradFav)"/>

  <!-- Body -->
  <ellipse cx="16" cy="21" rx="11" ry="10" fill="url(#bodyGradFav)"/>

  <!-- Inner highlight -->
  <ellipse cx="12" cy="16.5" rx="4" ry="3" fill="#FFFFFF" opacity="0.25"/>

  <!-- Sprout stem -->
  <path d="M16 11.5 C16 9.5 15.5 7.5 15 5.5" stroke="#7DB87A" stroke-width="1.4" stroke-linecap="round" fill="none"/>

  <!-- Left leaf -->
  <path d="M15 7 C12.5 4.5 8.5 3.5 5.5 4.5 C3.5 5.5 3.5 7.5 5.5 8.5 C8.5 10 12.5 9.5 15 7 Z" fill="#6BAF5C"/>

  <!-- Right leaf -->
  <path d="M15 5.5 C16 2.5 19 1 22.5 1.5 C25 2 25.5 4 23.5 5.5 C21 7.5 17 7 15 5.5 Z" fill="#7CC66A"/>

  <!-- Left eye -->
  <rect x="10.5" y="20" width="4" height="5.5" rx="2" ry="2.75" fill="#1C1C1C"/>
  <!-- Right eye -->
  <rect x="17.5" y="20" width="4" height="5.5" rx="2" ry="2.75" fill="#1C1C1C"/>

  <!-- Eye highlights -->
  <circle cx="11.8" cy="21.5" r="0.9" fill="#FFFFFF" opacity="0.75"/>
  <circle cx="18.8" cy="21.5" r="0.9" fill="#FFFFFF" opacity="0.75"/>
</svg>
